<?xml version="1.0" encoding="utf-8"?>
<!-- Generator: Adobe Illustrator 22.1.0, SVG Export Plug-In . SVG Version: 6.00 Build 0)  -->
<svg version="1.1" id="Слой_1" xmlns="http://www.w3.org/2000/svg" xmlns:xlink="http://www.w3.org/1999/xlink" x="0px" y="0px"
	 viewBox="0 0 62 114" style="enable-background:new 0 0 62 114;" xml:space="preserve">
<style type="text/css">
	.st0{fill:#AE9C68;}
	.st1{fill:#FFFFFF;}
</style>
<g>
	<path class="st0" d="M0.0003628,0v114l31.1000004-17.5L62.0003624,114V0H0.0003628z"/>
	<g>
		<path class="st1" d="M27.4103642,56.7585526h-3.1900005v16.4699936h3.1900005v3.8899994H15.8903637v-3.8899994h3.2000008
			V56.7585526h-3.1999998v-3.8999977h11.5199995V56.7585526z"/>
		<path class="st1" d="M29.9803638,63.7385521c0-1.5199966,0-3.1800003,0-4.5299988h4.8100033
			c0.0999985,0.4799995,0.1699982,1.7300034,0.2099991,2.2799988c0.5900002-1.1100006,2-2.7000008,5.1899986-2.7000008
			c3.5999985,0,5.9199982,2.4600029,5.9199982,6.9999924v11.340004h-4.9899979V66.2985458
			c0-2-0.6599998-3.4999962-2.8699989-3.4999962s-3.2700005,1.1800003-3.2700005,4.3599968v10h-5.0000019V63.7385521z"/>
	</g>
</g>
</svg>
