<?xml version="1.0" encoding="utf-8"?>
<!-- Generator: Adobe Illustrator 22.1.0, SVG Export Plug-In . SVG Version: 6.00 Build 0)  -->
<svg version="1.1" id="Слой_1" xmlns="http://www.w3.org/2000/svg" xmlns:xlink="http://www.w3.org/1999/xlink" x="0px" y="0px"
	 viewBox="0 0 300 100" style="enable-background:new 0 0 300 100;" xml:space="preserve">
<style type="text/css">
	.st0{fill:#FFFFFF;}
</style>
<g>
	<rect x="51.3234291" y="12.6946497" width="198.688736" height="74.1884918"/>
	<g>
		<path class="st0" d="M91.4501495,28.2979927c9.1486511,0,14.8588562,3.5000687,14.8588562,10.8682861
			c0,5.0348396-2.7014618,8.1052055-6.508812,9.3943138c4.2370529,1.2283134,8.2284546,4.360302,8.2284546,10.6842461
			c0,9.7632256-9.39431,12.034977-16.8857803,12.0349846H72.6607056l-0.0000076-42.9818268L91.4501495,28.2979927z
			 M91.5109482,52.7360268l-9.7015991,0.0000038v11.0523262l9.2102737-0.0000038
			c4.1146393,0,7.7987518-0.8594017,7.7987518-5.5261612C98.8183746,53.7186775,95.1950531,52.7360268,91.5109482,52.7360268z
			 M90.6515427,35.8510818l-8.780571,0.0000038v9.8240128l9.2718964-0.0000038c3.5000687,0,6.0174866-1.5963898,6.0174866-4.9124222
			C97.1603546,37.3850174,94.7037277,35.8510818,90.6515427,35.8510818z"/>
		<path class="st0" d="M124.7878494,71.2798157l-0.0000076-15.2277641l-16.8241577-27.7540607l10.3769684-0.0000019
			l10.9915314,19.2799454l10.9907074-19.2799492l10.3769531-0.0000019l-16.7625122,27.7540684v15.2277641H124.7878494z"/>
		<path class="st0" d="M145.5392761,71.279808l17.5611267-42.9818268l9.9472656-0.0000019l17.499527,42.9818192
			l-9.5167236,0.0000076l-3.1320038-8.0435829h-19.6488495l-3.1927795,8.0435829H145.5392761z M161.1359406,55.622345H175.01297
			l-6.0174866-15.412632c-0.3072815-0.8594055-0.6145782-1.7188072-0.9210205-3.3768234
			c-0.3072968,1.6580162-0.6145782,2.5174179-0.9826508,3.3768234L161.1359406,55.622345z"/>
		<path class="st0" d="M214.4289398,27.43857c4.6051331,0,9.2102661,0.9826488,13.2024994,2.7630787v8.780571
			c-3.2544098-2.1493416-7.6147156-3.3160286-11.9741821-3.3160286c-7.6755066,0-15.2277679,4.0521889-15.2277679,14.1226997
			c0.0000153,11.4212341,8.4116669,14.3067284,14.7372742,14.3067284c1.8420563,0,3.4376221-0.3072853,4.7275543-0.7986107
			V47.9468307h8.7805634l0.0000153,21.3068771c-4.2978516,1.8420486-9.2111053,2.885498-13.9994507,2.885498
			c-12.0349731,0-23.6402588-6.5704346-23.6402588-22.3503151C191.0351868,34.1922188,202.6404572,27.4385719,214.4289398,27.43857z
			"/>
	</g>
</g>
</svg>
