<?xml version="1.0" encoding="utf-8"?>
<!-- Generator: Adobe Illustrator 22.1.0, SVG Export Plug-In . SVG Version: 6.00 Build 0)  -->
<svg version="1.1" id="Слой_1" xmlns="http://www.w3.org/2000/svg" xmlns:xlink="http://www.w3.org/1999/xlink" x="0px" y="0px"
	 viewBox="0 0 300 100" style="enable-background:new 0 0 300 100;" xml:space="preserve">
<style type="text/css">
	.st0{fill:#E71409;}
	.st1{fill:#FFFFFF;}
</style>
<g>
	<rect x="40.6435509" y="27.0834522" class="st0" width="220.0484772" height="46.1306458"/>
	<g>
		<path class="st1" d="M68.3593216,36.2512894c2.8634872,0,5.7269745,0.6110153,8.2088394,1.7180901v5.4597893
			c-2.0235977-1.3364677-4.7343369-2.0619202-7.4450684-2.0619164c-4.7726517,0-9.4686699,2.5196609-9.4686699,8.7815361
			c0,7.1017647,5.2303963,8.8959732,9.163166,8.8959732c1.1453934,0,2.1380386-0.1910706,2.9401245-0.4965782v-9.5447922h5.4597855
			v13.2486839c-2.6729355,1.1453972-5.7274933,1.7942123-8.7054214,1.7942123
			c-7.4833832,0-14.699585-4.0849991-14.699585-13.8974953C53.8124924,40.4507294,61.0286865,36.2512894,68.3593216,36.2512894z"/>
		<path class="st1" d="M82.0636826,63.5119057V36.7856674l10.9956894-0.0000038
			c5.1925964,0,10.6140671,1.9469643,10.6140671,8.7054176c0,4.5815849-2.5957794,6.9106941-5.8408966,7.9411354
			l7.979454,10.0796852h-6.6051788l-7.2162018-9.3542328H87.790657v9.3542366H82.0636826z M87.790657,49.3850174
			l5.5359039-0.0000038c2.4057465,0,4.5059814-1.0687599,4.5059814-3.7800102c0-2.7485352-2.100235-3.7794952-4.5059814-3.7794952
			H87.790657V49.3850174z"/>
		<path class="st1" d="M106.2671509,63.5119019l10.9195709-26.7262421h6.1852417l10.8812561,26.7262383h-5.9175262
			l-1.9474869-5.0015259l-12.21772,0.0000038l-1.9852829,5.0015259H106.2671509z M115.96521,53.7760391h8.6287842
			l-3.7416916-9.5836258c-0.1910782-0.5343819-0.3821487-1.0687599-0.5727005-2.09972
			c-0.1910706,1.0309601-0.3821411,1.5653419-0.6110153,2.09972L115.96521,53.7760391z"/>
		<path class="st1" d="M147.3087616,36.785656c6.4524231,0,11.5300751,2.0619164,11.5300751,8.9726067
			s-5.077652,8.9720955-11.5300751,8.9720955h-4.3527069v8.7815361l-5.7269745,0.0000038l-0.0000153-26.7262383
			L147.3087616,36.785656z M147.575943,41.8255005h-4.6198883v7.8650131h4.6198883
			c2.939621,0,5.4219971-0.8015709,5.4219971-3.9322472C152.9979401,42.5892677,150.5155487,41.8255005,147.575943,41.8255005z"/>
		<path class="st1" d="M186.0973816,36.7856483v26.7262421h-5.7269745V52.7450676l-11.9888611,0.0000038v10.766819
			l-5.7269745,0.0000038V36.7856522h5.7269745V47.552475l11.9888611-0.0000038v-10.766819L186.0973816,36.7856483z"/>
		<path class="st1" d="M197.548233,36.7856483v26.7262383h-5.7269745l-0.0000153-26.7262383H197.548233z"/>
		<path class="st1" d="M216.1412201,36.2512665c2.6724243,0,5.3448334,0.5726967,7.6356354,1.7180901v5.4597893
			c-1.7180939-1.3364677-4.1994476-2.1002388-6.6813049-2.1002388c-4.6960144,0.0000038-9.4303589,2.6729393-9.4303589,9.1253662
			c-0.0383148,5.8797302,4.7721405,8.4760284,9.4303589,8.4760284c2.749054,0,5.2687225-0.7637711,6.8723755-2.2141571v5.6120262
			c-2.2907867,1.1075935-4.925415,1.7180939-7.7505798,1.7180939c-7.1395569,0-14.4324036-4.2760735-14.4324036-13.5919914
			C201.8232574,40.6800957,209.0011444,36.2512665,216.1412201,36.2512665z"/>
		<path class="st1" d="M236.8323822,36.2512627c3.1690063,0,6.3763123,0.7632484,8.6671143,2.0619164v5.3448334
			c-2.2524719-1.603138-5.2687225-2.4052238-8.2471619-2.367424c-2.9012909,0.0383186-4.3521881,0.8404045-4.3521881,2.4823799
			c0,4.619381,14.6229401,2.9012871,14.6229553,12.4082756c0,5.9941673-4.8109741,7.8650131-10.4235229,7.8650131
			c-3.7033691,0-7.1395569-0.8782005-9.8886108-2.4052238v-5.4597855c3.0545654,2.0236015,6.4146271,2.8251686,9.4686737,2.8251686
			c3.0928802,0,5.0020447-0.6488152,5.0020447-2.5579796c0-5.0015259-14.6234741-3.1306763-14.6234741-12.59935
			C227.0582123,38.6942902,231.5636749,36.2512627,236.8323822,36.2512627z"/>
	</g>
</g>
</svg>
