<?xml version="1.0" encoding="utf-8"?>
<!-- Generator: Adobe Illustrator 22.1.0, SVG Export Plug-In . SVG Version: 6.00 Build 0)  -->
<svg version="1.1" id="Слой_1" xmlns="http://www.w3.org/2000/svg" xmlns:xlink="http://www.w3.org/1999/xlink" x="0px" y="0px"
	 viewBox="0 0 170 130" style="enable-background:new 0 0 170 130;" xml:space="preserve">
<style type="text/css">
	.st0{fill:#FFFFFF;}
	.st1{fill:#E71409;}
</style>
<g>
	<g>
		<rect x="0.0051876" y="0.3148595" width="136.5260773" height="50.9775467"/>
		<g>
			<path class="st0" d="M27.5776825,11.0364704c6.2863617-0.000001,10.2100449,2.4050207,10.2100449,7.4679852
				c0,3.4596157-1.856266,5.5693741-4.472435,6.4551659c2.9114304,0.844017,5.6540604,2.9961185,5.6540604,7.341526
				c0.0000038,6.7086563-6.455162,8.2696609-11.6028137,8.2696609l-12.6997538,0.0000038l-0.0000048-29.5343399
				L27.5776825,11.0364704z M27.6194572,27.8287106l-6.6663132,0.0000019l0.0000019,7.5944443h6.3287048
				c2.8273163,0,5.3588009-0.5905266,5.3587971-3.797224C32.6406479,28.5039253,30.150938,27.8287106,27.6194572,27.8287106z
				 M27.0289288,16.2264671h-6.0334415v6.7504292l6.3710499-0.0000019c2.4050217,0,4.1348286-1.0969372,4.1348286-3.3754997
				C31.5013657,17.2804871,29.8133297,16.2264652,27.0289288,16.2264671z"/>
			<path class="st0" d="M50.4851952,40.5708046V30.1072693L38.9247169,11.0364685l7.1303787-0.000001l7.5526772,13.2479353
				l7.5521011-13.2479382l7.1303787-0.000001L56.7721252,30.1072693l0.0000038,10.4635353H50.4851952z"/>
			<path class="st0" d="M64.7442398,40.5708046l12.0668793-29.5343418l6.8351135-0.000001L95.6707764,40.570797h-6.5392838
				l-2.1520996-5.5270271H73.4779663l-2.1938782,5.5270309L64.7442398,40.5708046z M75.4612656,29.8120022l9.5354004-0.0000019
				l-4.1348343-10.5905666c-0.2111511-0.5905266-0.4222946-1.1810513-0.6328735-2.3203335
				c-0.2111435,1.1392822-0.4222946,1.7298088-0.675209,2.3203354L75.4612656,29.8120022z"/>
			<path class="st0" d="M112.0807724,10.4459305c3.1643524-0.000001,6.3287048,0.6752129,9.071907,1.8986101v6.0334406
				c-2.2362213-1.4768867-5.232338-2.2785606-8.22789-2.2785606c-5.2741089,0.0000019-10.4635315,2.7844028-10.4635315,9.7042065
				c0,7.8479385,5.779953,9.8306656,10.126503,9.8306618c1.2657394,0,2.3621063-0.2111473,3.2484665-0.5487518V24.5378838h6.0334396
				v14.6407089c-2.9532013,1.2657433-6.329277,1.9827271-9.6195145,1.9827271
				c-8.2696609,0.0000038-16.2440567-4.5147781-16.2440643-15.3576908
				C96.0060883,15.0866022,103.980484,10.4459314,112.0807724,10.4459305z"/>
		</g>
	</g>
	<g>
		
			<rect x="29.7383175" y="49.1311646" transform="matrix(0.7071066 -0.7071069 0.7071069 0.7071066 -15.0945749 93.5188141)" class="st1" width="151.203125" height="31.6980038"/>
		<g>
			<path class="st0" d="M58.5955048,98.2195663c1.3913078-1.391304,3.0794907-2.485733,4.8232803-3.1537094l2.6527939,2.6527863
				c-1.6325836,0.3338699-3.3021545,1.2984695-4.6192398,2.6155624c-2.3189278,2.318924-3.3763695,5.8248672-0.3338623,8.8673782
				c3.450592,3.4505844,6.8636932,1.7810211,8.7745438-0.1298294c0.5565186-0.5565186,0.9459839-1.1316605,1.1872635-1.6698151
				l-4.6376114-4.6376038l2.6527939-2.6527939l6.4372482,6.4372482c-0.7421951,1.8552399-1.9110947,3.6546326-3.3580017,5.1015396
				c-3.6360168,3.6360168-9.1270218,5.1573944-13.8947029,0.3897171
				C53.5679321,107.3279724,55.0337105,101.7813644,58.5955048,98.2195663z"/>
			<path class="st0" d="M78.4994965,104.8062592L65.5137939,91.8205643l5.3425674-5.3425674
				c2.5229721-2.5229721,6.1031265-4.2111588,9.3869171-0.9273758c2.2260895,2.2260971,2.0965195,4.618988,1.020462,6.6963882
				l8.7745361,1.020462l-3.2093124,3.2093124l-8.0512085-1.038826l-2.0406723,2.0406647l4.5450211,4.5450211L78.4994965,104.8062592
				z M74.4181595,95.1596985l2.6897736-2.6897736c1.1688995-1.1688995,1.6700668-2.7086487,0.3527298-4.0259857
				c-1.3354492-1.3354568-2.8568344-0.815918-4.0257263,0.3529816l-2.6897812,2.6897812L74.4181595,95.1596985z"/>
			<path class="st0" d="M90.2594299,93.0463181l-7.6801147-18.291275l3.0052719-3.0052719l18.2726593,7.6987228
				l-2.8751984,2.8751984l-3.3763733-1.4838867l-5.9363251,5.9363251l1.4655304,3.3947372L90.2594299,93.0463181z
				 M90.2410583,83.6037979l4.1925354-4.1925354l-6.4744797-2.8384628c-0.352478-0.1668091-0.7049637-0.3336182-1.2984695-0.741951
				c0.4080811,0.5937576,0.5748901,0.9462433,0.7233276,1.3170853L90.2410583,83.6037979z"/>
			<path class="st0" d="M97.2149506,60.1194c3.1350937-3.1350937,6.6040497-4.6003685,9.9617996-1.2426186
				c3.3577576,3.3577538,1.8922348,6.826458-1.2428589,9.9615517l-2.1148911,2.1148911l4.2667618,4.2667542l-2.7826157,2.7826157
				L92.3174515,65.0168991L97.2149506,60.1194z M99.7935181,62.4383278l-2.2447052,2.244709l3.8214417,3.821434l2.2447052-2.2447052
				c1.4282913-1.4282913,2.244957-3.0238914,0.7238312-4.5450172
				C102.7990417,60.1749992,101.2218094,61.0100365,99.7935181,62.4383278z"/>
			<path class="st0" d="M116.0614853,41.2728539l12.9856949,12.9856949l-2.782608,2.7826118l-5.2313614-5.2313614
				l-5.825119,5.8251228l5.2313614,5.2313614l-2.7826157,2.7826118l-12.9856949-12.9856911l2.7826157-2.7826157l5.2313614,5.2313614
				l5.825119-5.825119l-5.2313614-5.2313652L116.0614853,41.2728539z"/>
			<path class="st0" d="M121.625206,35.709137l12.9856949,12.9856911l-2.782608,2.7826157l-12.9857025-12.9856949
				L121.625206,35.709137z"/>
			<path class="st0" d="M130.3994904,26.4155598c1.2984772-1.2984695,2.8751984-2.3186779,4.5447693-2.8752003l2.6527863,2.6527901
				c-1.4841461,0.1854248-3.0608673,1.0199566-4.2667542,2.2258396c-2.2816925,2.2816925-3.2832794,5.880724-0.1481781,9.0158176
				c2.8382111,2.8754501,6.4369812,1.7996407,8.7003174-0.4636879c1.3356934-1.3357048,2.1888428-2.9310493,2.2633209-4.4149437
				l2.7267609,2.7267609c-0.5748901,1.6511993-1.5583649,3.227932-2.9310455,4.6006203
				c-3.4689636,3.468956-9.0900421,4.9347343-13.6164398,0.4083366
				C125.5945816,35.5242157,126.9302826,29.8847694,130.3994904,26.4155598z"/>
			<path class="st0" d="M140.4528809,16.3621731c1.5397339-1.5397472,3.4689484-2.7272635,5.2129974-3.2093153l2.5969238,2.5969372
				c-1.8733521,0.3154974-3.7285919,1.3913069-5.1573944,2.8568335c-1.3910522,1.4282913-1.7062988,2.5229702-0.908493,3.3207703
				c2.2444611,2.2444553,8.5146484-5.6953011,13.1338806-1.0760632c2.9124451,2.9124336,1.483902,6.1589832-1.2431183,8.8859959
				c-1.7993774,1.7993889-3.8956604,3.0422554-5.9732971,3.6360168l-2.6528015-2.652792
				c2.4673767-0.5009212,4.4894257-1.7440395,5.9733124-3.2279339c1.5027618-1.5027618,2.1151428-2.7456284,1.1875153-3.6732502
				c-2.43013-2.4301319-8.626358,5.5840969-13.2269745,0.9834766
				C136.8908234,22.2982464,137.8929291,18.9221268,140.4528809,16.3621731z"/>
		</g>
	</g>
</g>
</svg>
