<?xml version="1.0" encoding="utf-8"?>
<!-- Generator: Adobe Illustrator 22.1.0, SVG Export Plug-In . SVG Version: 6.00 Build 0)  -->
<svg version="1.1" id="Слой_1" xmlns="http://www.w3.org/2000/svg" xmlns:xlink="http://www.w3.org/1999/xlink" x="0px" y="0px"
	 viewBox="0 0 62 114" style="enable-background:new 0 0 62 114;" xml:space="preserve">
<style type="text/css">
	.st0{fill:#191828;}
	.st1{fill:#70C5FB;}
</style>
<g>
	<path class="st0" d="M0.0021052,0.0014317v114l31.1000004-17.5l30.8999996,17.5v-114H0.0021052z"/>
	<g>
		<g>
			<path class="st1" d="M15.1103725,53.2994232c1.6653748-0.2837372,4.0040989-0.4965439,7.2993813-0.4965439
				c3.3307514,0,5.7049427,0.6378822,7.2993832,1.9136467c1.5235062,1.2048302,2.5515289,3.1888809,2.5515289,5.527607
				c0,2.3387222-0.7797527,4.3233032-2.1968555,5.6694717c-1.8427124,1.7363129-4.5710468,2.5160599-7.760458,2.5160599
				c-0.7088165,0-1.3461685-0.0354614-1.8427105-0.1063995v8.5396805h-5.3502693V53.2994232z M20.4606419,64.1418304
				c0.4610748,0.1063995,1.0280209,0.1418686,1.8072433,0.1418686c2.8702049,0,4.6419811-1.4525719,4.6419811-3.8976974
				c0-2.1968575-1.5235062-3.5080872-4.2169018-3.5080872c-1.0984287,0-1.8421822,0.1064034-2.2323227,0.2128029V64.1418304z"/>
			<path class="st1" d="M34.7396698,72.150032c0.9925575,0.6024094,3.0475426,1.3112259,4.641983,1.3112259
				c1.6299057,0,2.303257-0.5669479,2.303257-1.4525681c0-0.8861542-0.5314827-1.3112335-2.5509987-1.984581
				c-3.5790215-1.204834-4.9611893-3.1534119-4.9257202-5.208931c0-3.2243462,2.7638016-5.6694717,7.0516396-5.6694717
				c2.0195198,0,3.8267632,0.4605446,4.8897247,0.9925537l-0.9565582,3.7203598
				c-0.7797508-0.4250793-2.2677917-0.9920235-3.7563591-0.9920235c-1.3107033,0-2.054985,0.5314789-2.054985,1.4171028
				c0,0.8152161,0.6733475,1.2402954,2.7992706,1.984581c3.2952805,1.1338959,4.6774483,2.7992706,4.7129135,5.3502655
				c0,3.2248764-2.5515289,5.5985413-7.5121841,5.5985413c-2.2677917,0-4.2873077-0.4960098-5.5985413-1.2042999
				L34.7396698,72.150032z"/>
		</g>
	</g>
</g>
</svg>
